# xmcd CD database file
#
# Track frame offsets:
#	150
#	15424
#	28668
#	38116
#	53811
#	66873
#	75597
#	91997
#	106226
#	119148
#	130062
#	141626
#
# Disc length: 2059 seconds
#
# Revision: 0
# Processed by: cddbd v1.5.1PL2 Copyright (c) Steve Scherf et al.
# Submitted via: CDex 1.51
#
DISCID=a108090c
DTITLE=Doyle Lawson and Quicksilver - He Lives In Me
DYEAR=2006
DGENRE=Country
TTITLE0=He Lives In Me
TTITLE1=In His Presence
TTITLE2=I Am On My Journey Home
TTITLE3=Remember My Name In Your Prayers
TTITLE4=Help Me Lord
TTITLE5='Til I See You Face To Face
TTITLE6=There's A Treasure In Heaven
TTITLE7=The End Of The Road
TTITLE8=Will You Meet Me Over Yonder
TTITLE9=We Shall Inherit
TTITLE10=Far Better Than This
TTITLE11=When He Welcomes Me In
EXTD=YEAR: 2006
EXTT0=
EXTT1=
EXTT2=
EXTT3=
EXTT4=
EXTT5=
EXTT6=
EXTT7=
EXTT8=
EXTT9=
EXTT10=
EXTT11=
PLAYORDER=
